# xmcd
#
# Track frame offsets:
#	150
#	10482
#	27450
#	40512
#	53805
#	70161
#	94292
#	114596
#	128683
#	141227
#	154884
#	166837
#	179825
#	214860
#	224885
#	234012
#	246282
#
# Disc length: 3495 seconds
#
# Revision: 1
# Processed by: cddbd v1.4PL0 Copyright (c) Steve Scherf et al.
# Submitted via: audiograbber 1.80.04
#
DISCID=f90da511
DTITLE=Buzzcocks - Small Songs with Big Hearts - London Rainbow '79
DYEAR=1900
DGENRE=
TTITLE0=i don't mind
TTITLE1=autonomy
TTITLE2=ever fallen in love
TTITLE3=mad mad judy
TTITLE4=sixteen
TTITLE5=moving away from the pulsebeat
TTITLE6=nothing left
TTITLE7=noise annoys
TTITLE8=You say you don't love me
TTITLE9=harmony in my head
TTITLE10=i don't know what to do with my life
TTITLE11=money
TTITLE12=i believe
TTITLE13=breakdown
TTITLE14=love you more
TTITLE15=what do I get?
TTITLE16=boredom
EXTD=
EXTT0=
EXTT1=
EXTT2=
EXTT3=
EXTT4=
EXTT5=
EXTT6=
EXTT7=
EXTT8=
EXTT9=
EXTT10=
EXTT11=
EXTT12=
EXTT13=
EXTT14=
EXTT15=
EXTT16=
PLAYORDER=
